<svg xmlns="http://www.w3.org/2000/svg" xmlns:xlink="http://www.w3.org/1999/xlink" width="500" zoomAndPan="magnify" viewBox="0 0 375 374.999991" height="500" preserveAspectRatio="xMidYMid meet" version="1.0"><defs><g/><clipPath id="id1"><path d="M 65.652344 167.34375 L 309.402344 167.34375 L 309.402344 207.84375 L 65.652344 207.84375 Z M 65.652344 167.34375 " clip-rule="nonzero"/></clipPath></defs><g fill="#ffffff" fill-opacity="1"><g transform="translate(82.006669, 253.874983)"><g><path d="M 99.996094 -3.90625 C 99.996094 -1.855469 101.070312 0 103.121094 0 L 122.945312 0 C 125.09375 0 125.972656 -1.953125 125.972656 -3.90625 L 125.972656 -103.414062 C 125.972656 -122.164062 108.980469 -137.300781 89.449219 -137.300781 C 80.660156 -137.300781 72.363281 -134.273438 66.015625 -129.195312 C 59.570312 -134.273438 51.269531 -137.300781 42.578125 -137.300781 C 23.046875 -137.300781 6.152344 -122.164062 6.152344 -103.414062 L 6.152344 -3.808594 C 6.152344 -1.757812 7.324219 0 8.691406 0 L 29.296875 0 C 31.640625 0 32.226562 -1.660156 32.226562 -3.808594 L 32.226562 -101.949219 C 32.226562 -108.101562 36.035156 -113.667969 42.675781 -113.667969 C 49.21875 -113.667969 53.027344 -108.101562 53.027344 -101.949219 L 53.027344 -3.808594 C 53.027344 -1.757812 54.296875 0 55.664062 0 L 76.269531 0 C 78.609375 0 79.097656 -1.660156 79.097656 -3.710938 L 79.097656 -102.339844 C 79.292969 -108.296875 83.101562 -113.667969 89.546875 -113.667969 C 96.089844 -113.667969 99.996094 -108.101562 99.996094 -101.949219 Z M 99.996094 -3.90625 "/></g></g></g><g fill="#ffffff" fill-opacity="1"><g transform="translate(224.132275, 253.874983)"><g><path d="M 62.402344 -130.953125 C 62.402344 -133.785156 61.425781 -135.152344 58.886719 -135.152344 L 39.160156 -135.152344 C 38.085938 -135.152344 36.425781 -134.371094 36.425781 -131.441406 L 36.425781 -34.179688 C 36.425781 -27.050781 32.8125 -21.386719 25.195312 -21.386719 C 20.703125 -21.386719 16.40625 -23.632812 13.574219 -26.5625 C 12.695312 -27.539062 11.71875 -28.027344 10.742188 -28.027344 C 9.765625 -28.027344 8.789062 -27.539062 8.007812 -26.5625 L -0.976562 -15.234375 C -2.441406 -13.378906 -0.976562 -10.449219 -0.0976562 -9.375 C 6.445312 -1.464844 16.699219 2.148438 26.5625 2.148438 C 45.996094 2.148438 62.402344 -11.230469 62.402344 -32.714844 Z M 62.402344 -130.953125 "/></g></g></g><g clip-path="url(#id1)"><path fill="#000000" d="M 65.65625 167.34375 L 309.398438 167.34375 L 309.398438 207.84375 L 65.65625 207.84375 L 65.65625 167.34375 " fill-opacity="1" fill-rule="nonzero"/></g><g fill="#ffffff" fill-opacity="1"><g transform="translate(160.190817, 193.874987)"><g><path d="M 4.675781 -3.117188 C 4.675781 -2.644531 4.339844 -2.117188 3.714844 -2.117188 L 2.800781 -2.117188 L 2.800781 -5.289062 L 3.671875 -5.289062 C 4.199219 -5.289062 4.675781 -4.9375 4.675781 -4.191406 Z M 4.59375 -8.117188 C 4.59375 -7.363281 3.960938 -7.175781 3.574219 -7.175781 L 2.800781 -7.175781 L 2.800781 -10.023438 L 3.601562 -10.023438 C 4.171875 -10.023438 4.59375 -9.707031 4.59375 -8.980469 Z M 6.816406 -9.109375 C 6.816406 -10.859375 5.5625 -12.160156 3.726562 -12.160156 L 0.929688 -12.160156 C 0.738281 -12.160156 0.632812 -12.027344 0.632812 -11.816406 L 0.632812 -0.332031 C 0.632812 -0.121094 0.730469 0 0.929688 0 L 3.996094 0 C 5.5625 0 7.019531 -1.175781 7.019531 -2.890625 L 7.019531 -3.980469 C 7.019531 -5.5 6.019531 -6.183594 5.527344 -6.316406 C 6.089844 -6.441406 6.816406 -7.257812 6.816406 -8.242188 Z M 6.816406 -9.109375 "/></g></g></g><g fill="#ffffff" fill-opacity="1"><g transform="translate(176.671906, 193.874987)"><g><path d="M 5.9375 0 C 6.097656 0 6.183594 -0.105469 6.183594 -0.316406 L 6.183594 -1.820312 C 6.183594 -2.03125 6.097656 -2.117188 5.9375 -2.117188 L 2.96875 -2.117188 L 2.96875 -11.816406 C 2.96875 -12.027344 2.882812 -12.160156 2.679688 -12.160156 L 0.921875 -12.160156 C 0.730469 -12.160156 0.632812 -12.027344 0.632812 -11.816406 L 0.632812 -0.332031 C 0.632812 -0.121094 0.730469 0 0.929688 0 Z M 5.9375 0 "/></g></g></g><g fill="#ffffff" fill-opacity="1"><g transform="translate(192.318573, 193.874987)"><g><path d="M 7.003906 -9.296875 C 7.003906 -11.210938 5.472656 -12.34375 3.707031 -12.34375 C 1.949219 -12.34375 0.4375 -11.203125 0.4375 -9.296875 L 0.4375 -2.855469 C 0.4375 -0.992188 1.949219 0.191406 3.707031 0.191406 C 5.472656 0.191406 7.003906 -0.949219 7.003906 -2.855469 Z M 3.726562 -10.234375 C 4.3125 -10.234375 4.664062 -9.726562 4.664062 -9.164062 L 4.664062 -2.925781 C 4.664062 -2.371094 4.3125 -1.925781 3.707031 -1.925781 C 3.109375 -1.925781 2.777344 -2.425781 2.777344 -2.976562 L 2.777344 -9.164062 C 2.777344 -9.726562 3.128906 -10.234375 3.726562 -10.234375 Z M 3.726562 -10.234375 "/></g></g></g><g fill="#ffffff" fill-opacity="1"><g transform="translate(209.02803, 193.874987)"><g><path d="M 4.683594 -2.925781 C 4.683594 -2.371094 4.269531 -1.925781 3.707031 -1.925781 C 3.1875 -1.925781 2.777344 -2.34375 2.777344 -2.96875 L 2.777344 -9.214844 C 2.777344 -9.777344 3.136719 -10.234375 3.699219 -10.234375 C 4.296875 -10.234375 4.640625 -9.714844 4.640625 -9.191406 L 4.640625 -8.417969 C 4.640625 -8.179688 4.691406 -8.082031 4.894531 -8.082031 L 6.554688 -8.082031 C 6.757812 -8.082031 6.828125 -8.1875 6.828125 -8.453125 L 6.828125 -9.25 C 6.828125 -10.367188 6.183594 -12.34375 3.714844 -12.34375 C 1.949219 -12.34375 0.4375 -11.203125 0.4375 -9.296875 L 0.4375 -2.855469 C 0.4375 -0.914062 1.976562 0.191406 3.707031 0.191406 C 5.472656 0.191406 6.878906 -0.949219 6.878906 -2.855469 L 6.878906 -6.238281 C 6.878906 -6.449219 6.773438 -6.570312 6.5625 -6.570312 L 4.03125 -6.570312 C 3.855469 -6.570312 3.769531 -6.464844 3.769531 -6.265625 L 3.769531 -4.929688 C 3.769531 -4.71875 3.855469 -4.628906 4.03125 -4.628906 L 4.683594 -4.628906 Z M 4.683594 -2.925781 "/></g></g></g><path stroke-linecap="butt" transform="matrix(1.500563, 0, 0, 1.5, 93.783896, 168.092773)" fill="none" stroke-linejoin="miter" d="M 0.000839891 0.000651359 L 124.953974 0.000651359 " stroke="#ffffff" stroke-width="1" stroke-opacity="1" stroke-miterlimit="4"/><path stroke-linecap="butt" transform="matrix(1.500563, 0, 0, 1.5, 93.783896, 206.907217)" fill="none" stroke-linejoin="miter" d="M 0.000839891 -0.000644542 L 124.953974 -0.000644542 " stroke="#ffffff" stroke-width="1" stroke-opacity="1" stroke-miterlimit="4"/></svg>