<svg xmlns="http://www.w3.org/2000/svg" xmlns:xlink="http://www.w3.org/1999/xlink" width="1900" height="1009" viewBox="0 0 1900 1009">
  <defs>
    <linearGradient id="linear-gradient" x1="0.098" y1="0.82" x2="0.871" y2="0.045" gradientUnits="objectBoundingBox">
      <stop offset="0" stop-color="#114c90"/>
      <stop offset="0.31" stop-color="#0d8adb"/>
      <stop offset="0.599" stop-color="#35c1f1"/>
      <stop offset="1" stop-color="#66eb6e"/>
    </linearGradient>
    <filter id="Path_49181" x="708.33" y="269.461" width="479.34" height="486.078" filterUnits="userSpaceOnUse">
      <feOffset dx="-2" dy="8" input="SourceAlpha"/>
      <feGaussianBlur stdDeviation="6.5" result="blur"/>
      <feFlood flood-opacity="0.4"/>
      <feComposite operator="in" in2="blur"/>
      <feComposite in="SourceGraphic"/>
    </filter>
  </defs>
  <g id="skit-logo-big-2" transform="translate(6085 -17317)">
    <rect id="Rectangle_22003" data-name="Rectangle 22003" width="1900" height="1009" transform="translate(-6085 17317)" fill="none"/>
    <g transform="matrix(1, 0, 0, 1, -6085, 17317)" filter="url(#Path_49181)">
      <path id="Path_49181-2" data-name="Path 49181" d="M234.068,189.606c9.369-22.624,15.825-46.331,22.257-69.961l8.2-30.125c2.376-8.737,5.575-19.44,15.564-21.893a16.051,16.051,0,0,1,12.268,2.006c4.5,2.849,7.271,7.767,9.059,12.78,7.721,21.65,13.741,44.127,20.634,66.068,4.892,15.571,9.87,31.325,18.47,45.2,10.311,16.614,26.389,30.594,46.7,30.594a49.941,49.941,0,0,0-9.941.967c-16.258,3.186-29.336,17.841-37.416,31.517-8.041,13.609-12.859,28.838-17.6,43.917q-5.925,18.815-11.853,37.626c-3.58,11.371-5.9,25.351-12.323,35.519a17.469,17.469,0,0,1-16.956,7.91c-9.87-1.45-13.859-11.2-16.282-19.683-8.867-31.016-15.689-51.555-24.942-82.43-1.986-6.628-7.437-25.444-12.709-30.5a10.24,10.24,0,0,0-7.718-2.89,12.28,12.28,0,0,0-8.242,4.825c-3.056,3.765-5.007,8.692-7.376,12.913-4.368,7.773-14.047,14.808-23.157,10.643-9.43-4.308-12.361-17.381-18.951-24.735a14.954,14.954,0,0,0-4.739-3.758c-7.52-3.448-14.835,5.083-18.984,10.2-6.654,8.207-11.952,19.158-21.736,24.173-12.518,6.4-23-6.895-28.838-16.346-3.442-5.569-6.42-11.425-10.158-16.809-5.891-8.5-16.509-20.248-27.117-22.532a21.357,21.357,0,0,0-4.726-.524,21.164,21.164,0,0,0,4.707-.524c10.129-2.308,18.623-12.185,24.8-19.974,7.214-9.094,13.2-19.1,20.414-28.19,3.8-4.8,8.8-9.7,14.912-9.451,3.911.159,7.415,2.461,10.337,5.074,6.121,5.473,10.547,12.45,15.672,18.792,4.218,5.231,10.851,13.773,18.433,12.944,8.832-.964,12.745-12.955,16.672-19.422,3.4-5.592,8.555-10.956,15.088-11.269,6.584-.316,12.294,4.65,15.947,10.135,4.161,6.236,7.44,17.483,15.244,20.139a9.677,9.677,0,0,0,3.117.54c6.712,0,10.947-7.877,13.261-13.462M151.294,11.251C57.619,42.015-5.629,135.322.4,233.8c5.517,90.174,68.468,170.364,154.776,196.94a222.779,222.779,0,0,0,125.5,1.338c21.634-6.1,42.888-14.6,65.48-16.432,23.206-1.887,46.94,3.542,67.63,14.028a134.575,134.575,0,0,1,22,13.935c1.553,1.185,3.062,2.42,4.556,3.7V238.093c0-3.678-.015-7.352-.07-11.027-.288-20.552-1.632-40.973-6.716-61.039C410.861,76.4,330.746,9.53,238.921,1.116c-6.412-.587-12.86-.878-19.3-.878a218.428,218.428,0,0,0-68.331,11.013" transform="translate(729.83 280.72)" fill="url(#linear-gradient)"/>
    </g>
  </g>
</svg>
